<svg width="102" height="64" viewBox="0 0 102 64" fill="none" xmlns="http://www.w3.org/2000/svg">
<path fill-rule="evenodd" clip-rule="evenodd" d="M82.224 36.644C89.2 34.464 97.256 45.711 99.931 33.396C103.525 16.853 89.565 26.924 82.312 25.104C76.823 20.997 77.059 14.334 78.832 7.95201C79.516 5.49101 80.423 3.01001 81.289 0.504013C78.133 0.522013 74.978 0.622008 71.831 0.818008C65.916 1.18701 60.02 1.85801 54.17 2.80101C50.299 3.42401 45.576 4.60902 49.406 9.27602C52.215 12.697 52.976 14.156 48.167 16.253C44.387 17.9 40.134 18.36 36.065 17.786C32.19 17.24 26.103 15.56 29.398 10.816C32.223 6.75002 33.318 3.78601 28.026 1.68901C21.759 -0.791989 9.416 1.73102 0.5 3.62502V62.919H78.298C76.005 55.042 79.564 39.686 82.224 36.644Z" fill="white" stroke="black" stroke-linecap="round"/>
</svg>
