<svg width="103" height="77" viewBox="0 0 103 77" fill="none" xmlns="http://www.w3.org/2000/svg">
<path fill-rule="evenodd" clip-rule="evenodd" d="M66.298 12.1534C66.269 9.62942 68.1089 9.11141 69.2839 7.06141C72.1209 2.11241 66.482 1.22542 62.673 0.510415C58.301 -0.310585 53.664 -0.212577 49.456 1.33042C46.185 3.78442 46.291 4.57842 48.531 8.13842C50.329 10.9954 51.3769 13.6464 47.3399 14.1564C44.7289 14.4854 42.111 14.7584 39.489 14.9784C34.236 15.4194 28.966 15.6514 23.695 15.7114C22.338 15.7274 20.981 15.7304 19.624 15.7244C19.653 16.9894 19.774 18.2554 20.059 19.5224C21.812 27.3484 24.361 38.2894 12.183 35.1314C6.76896 33.7284 6.60996 32.9594 1.54496 35.3884C-0.46704 38.4924 -0.478044 42.5284 1.30296 45.7364C6.16396 54.4944 11.91 45.6724 18.257 47.4104C23.17 53.6604 22.6339 61.0314 20.4129 68.2244C19.8929 69.9084 19.29 71.6034 18.696 73.3124C26.873 75.0274 35.295 76.9644 43.674 75.5454C48.702 74.6934 51.852 73.4144 48.531 68.1374C45.98 64.0834 46.6679 61.9004 51.5819 60.6794C56.8479 59.3714 75.827 59.6504 68.063 68.8154C60.782 77.4104 82.6199 76.3594 87.3579 75.7244C91.0759 75.2264 94.749 74.4534 98.423 73.6924C100.129 67.5484 102.099 61.9314 102.218 59.6124C102.641 51.4284 98.918 44.7644 90.473 48.9334C81.267 53.4784 76.8859 39.6204 83.1849 34.5464C89.5339 29.4314 99.0569 42.6984 101.478 29.8034C102.376 25.0194 100.983 20.2874 99.3319 15.7174C91.0539 15.6694 82.778 15.2314 74.529 14.5424C72.142 14.3424 66.334 15.1764 66.298 12.1534Z" fill="white"/>
</svg>
