<svg width="87" height="89" viewBox="0 0 87 89" fill="none" xmlns="http://www.w3.org/2000/svg">
<path fill-rule="evenodd" clip-rule="evenodd" d="M51.0945 13.8028C49.3765 9.04383 57.4845 6.66384 53.5085 2.38584C49.4295 0.693843 44.9485 -0.194163 40.5275 0.0358367C37.6515 0.184837 32.7305 0.641834 31.4465 3.63883C30.0455 6.90583 35.7385 9.75083 34.4895 13.8068C23.4045 18.2058 12.2795 15.1088 1.0955 12.8598C1.5945 16.2538 1.87748 19.6308 0.803477 23.6388C-0.661523 29.1028 -0.898523 36.1399 6.98448 36.0039C13.4525 35.8929 23.3975 28.7679 23.1025 41.0469C23.0195 44.5049 22.0375 49.6778 17.9025 50.2438C14.8105 50.6678 12.2325 48.5408 9.4835 47.5528C1.0875 44.5358 -0.380504 57.4199 0.297496 62.9479C0.678496 66.0549 1.13649 68.7658 1.45549 71.3638C14.1575 71.6268 26.6585 72.7988 29.7265 73.3778C32.0055 73.8078 34.7375 73.2748 34.7195 76.1608C34.7065 78.2508 33.3165 79.8758 32.1865 81.5028C29.4405 85.4568 33.1795 87.2609 36.8495 88.1029C40.8465 89.0209 45.1105 88.9188 49.0245 87.6658C54.5685 85.8918 55.7395 84.2818 52.1945 79.9628C45.6315 71.9658 67.8335 72.0088 72.0745 71.6828C76.2665 71.3598 80.4765 71.1858 84.6865 71.1788C85.3395 65.9128 86.7145 60.6958 86.0215 55.2688C85.3615 50.1048 83.5845 46.5618 77.9975 47.3158C75.8515 49.5338 72.7825 50.8308 69.7985 49.5158C66.7045 48.1518 64.8175 44.7499 64.5585 41.4779C64.1845 36.7329 66.6615 36.4358 69.0865 33.4078C72.8075 32.1758 77.3225 35.5828 81.2635 35.7818C85.0185 35.9718 85.9375 31.6198 86.2195 28.2998C86.6475 23.2678 85.0265 18.3759 83.3065 13.5429C72.5245 15.7359 61.8035 18.1778 51.0945 13.8028Z" fill="white"/>
</svg>
